<svg xmlns="http://www.w3.org/2000/svg" version="1.1" xmlns:xlink="http://www.w3.org/1999/xlink" xmlns:svgjs="http://svgjs.dev/svgjs" width="1440" height="560" preserveAspectRatio="none" viewBox="0 0 1440 560"><g mask="url(&quot;#SvgjsMask1001&quot;)" fill="none"><rect width="1440" height="560" x="0" y="0" fill="rgba(1, 119, 255, 1)"></rect><path d="M0,463.286C110.049,479.31,225.488,555.664,324.257,504.553C422.391,453.77,434.342,319.701,475.572,217.186C514.832,119.57,586.254,21.317,559.537,-80.449C533.05,-181.339,402.122,-210.951,340.985,-295.465C270.836,-392.437,287.953,-559.321,178.348,-607.396C71.715,-654.168,-50.069,-570.601,-149.99,-510.818C-234.034,-460.534,-278.526,-370.927,-341.813,-296.183C-404.216,-222.482,-483.701,-164.437,-519.288,-74.662C-561.078,30.762,-612.116,154.982,-560.73,256.077C-509.245,357.365,-375.342,378.82,-268.764,418.204C-181.795,450.342,-91.749,449.927,0,463.286" fill="#005fcd"></path><path d="M1440 962.855C1514.605 945.99 1535.506 848.56 1593.102 798.231 1639.213 757.938 1706.26 747.429 1742.779 698.275 1783.913 642.909 1827.019 573.594 1809.5729999999999 506.863 1792.054 439.85 1699.617 426.536 1657.385 371.635 1611.027 311.369 1619.402 211.55599999999998 1553.391 173.825 1487.243 136.01600000000002 1395.115 145.27999999999997 1329.694 184.33300000000003 1266.684 221.947 1259.855 308.337 1222.375 371.427 1192.844 421.137 1154.039 462.063 1132.762 515.826 1106.105 583.183 1063.6770000000001 653.173 1083.27 722.913 1103.306 794.23 1173.386 837.8720000000001 1234.853 879.216 1297.396 921.283 1366.481 979.4739999999999 1440 962.855" fill="#3492ff"></path></g><defs><mask id="SvgjsMask1001"><rect width="1440" height="560" fill="#ffffff"></rect></mask></defs></svg>